<svg width="380" height="336" viewBox="0 0 380 336" fill="none" xmlns="http://www.w3.org/2000/svg">
<mask id="mask0_5093_1081" style="mask-type:luminance" maskUnits="userSpaceOnUse" x="100" y="70" width="97" height="85">
<path d="M196.54 70.5044H100.826V154.242H196.54V70.5044Z" fill="white"/>
</mask>
<g mask="url(#mask0_5093_1081)">
<g opacity="0.5">
<path d="M139.913 153.318L192.407 152.726C195.219 152.238 196.523 148.042 194.956 144.524L164.574 76.8762C162.727 73.3103 160.497 71.5964 157.276 71.4194L104.981 71.8857C102.165 72.3735 100.86 76.5653 102.428 80.088L132.663 148.88C133.985 151.142 135.78 152.813 139.922 153.318" fill="#FFD894"/>
<path d="M139.913 153.318L192.407 152.726C195.219 152.238 196.523 148.042 194.956 144.524L164.574 76.8762C162.727 73.3103 160.497 71.5964 157.276 71.4194L104.981 71.8857C102.165 72.3735 100.86 76.5653 102.428 80.088L132.663 148.88C133.976 151.142 135.772 152.813 139.913 153.318Z" stroke="#FFC440" stroke-width="2.67" stroke-miterlimit="13.33"/>
</g>
</g>
<path d="M152.102 87.958L126.003 88.0746L127.265 90.531L152.963 90.0992L152.102 87.958Z" fill="#FFD894"/>
<path d="M161.9 83.3777L124.014 83.8914L125.271 86.3478L162.757 85.4844L161.9 83.3777Z" fill="#FFD894"/>
<path d="M174.609 141.226L148.511 141.342L149.768 143.799L175.47 143.367L174.609 141.226Z" fill="#FFD894"/>
<path d="M184.408 136.348L132.224 137.263L133.486 139.719L185.269 138.472L184.408 136.348Z" fill="#FFD894"/>
<path d="M114.659 83.4208C116.075 84.4742 117.978 84.4872 118.908 83.4511C119.838 82.415 119.446 80.7227 118.047 79.6737C116.648 78.6246 114.728 78.6074 113.798 79.6391C112.868 80.6709 113.26 82.3675 114.659 83.4208Z" fill="#FFC440"/>
<path d="M116.153 92.5298L123.579 92.2535C123.73 92.2486 123.877 92.2068 124.008 92.1316C124.138 92.0565 124.249 91.9504 124.329 91.8226C124.409 91.6947 124.457 91.5491 124.468 91.3984C124.479 91.2478 124.454 91.0967 124.393 90.9584L123.05 87.8242C122.611 86.7807 121.809 85.9324 120.794 85.4369C119.639 84.8659 118.347 84.6311 117.065 84.7591C116.629 84.8067 116.198 84.8876 115.774 85.0009C115.39 85.1123 115.035 85.3045 114.732 85.5646C114.428 85.8247 114.184 86.1467 114.014 86.5091C113.845 86.8715 113.754 87.2659 113.749 87.6662C113.743 88.0664 113.823 88.4632 113.983 88.8301L115.274 91.934C115.349 92.1055 115.472 92.2506 115.63 92.3507C115.787 92.4508 115.971 92.5011 116.157 92.4952" fill="#FFC440"/>
<path d="M139.677 123.146C147.06 128.629 156.975 128.702 161.827 123.31C166.679 117.918 164.626 109.098 157.246 103.616C149.867 98.1332 139.952 98.0598 135.1 103.452C130.248 108.844 132.297 117.663 139.677 123.146Z" fill="#FFD894"/>
<path d="M139.883 113.252L147.809 116.42L155.731 119.585L152.579 113.139L149.428 106.694L144.619 109.958L139.883 113.252Z" fill="#FFC440"/>
<path d="M284.294 116.506L279.085 104.112L273.875 91.718L289.581 88.696L303.074 97.3301L293.684 106.931L284.294 116.506Z" fill="#8AF9C9"/>
<path d="M284.294 116.506L279.085 104.112L273.875 91.718L289.581 88.696L284.294 116.506Z" fill="#40FFB6"/>
<path d="M292.655 72.5247L297.864 84.9145L303.074 97.3087L287.368 100.331L273.871 91.6966L283.248 82.1257L292.655 72.5247Z" fill="#78FFC5"/>
<path d="M292.655 72.5247L297.864 84.9145L303.074 97.3087L287.368 100.331L292.655 72.5247Z" fill="#C5FCE4"/>
<path d="M336.9 144.39L330.713 160.186L311.262 161.676L317.445 145.88L336.9 144.39Z" fill="#57B7FF"/>
<path d="M336.896 144.394L328.393 129.717L308.942 131.206L317.445 145.884L336.896 144.394Z" fill="#A4E5FF"/>
<path d="M317.462 145.824L311.262 161.676L302.725 147.045L308.942 131.206L317.462 145.824Z" fill="#3EA3FF"/>
<path d="M100.865 56.9055C93.7223 56.9055 91.4405 59.1979 91.4405 66.3598C91.4405 59.1979 89.1588 56.9055 82.0164 56.9055C89.1588 56.9055 91.4405 54.6175 91.4405 47.4556C91.4405 54.6175 93.7223 56.9055 100.865 56.9055Z" fill="#AEDEFF"/>
<path d="M170.166 53.9009C182.453 53.9009 186.384 57.838 186.384 70.1631C186.384 57.838 190.311 53.9009 202.602 53.9009C190.311 53.9009 186.384 49.9595 186.384 37.6387C186.384 49.9595 182.453 53.9009 170.166 53.9009Z" fill="#AEDEFF"/>
<path d="M286.748 60.9679C299.04 60.9679 302.966 64.9093 302.966 77.2301C302.966 64.9093 306.897 60.9679 319.184 60.9679C306.897 60.9679 302.966 57.0308 302.966 44.71C302.966 57.0308 299.04 60.9679 286.748 60.9679Z" fill="#AEDEFF"/>
<path d="M165.469 37.0215C170.95 37.0215 172.702 38.7785 172.702 44.2741C172.702 38.7785 174.45 37.0215 179.931 37.0215C174.45 37.0215 172.702 35.2688 172.702 29.7732C172.702 35.2688 170.95 37.0215 165.469 37.0215Z" fill="#AEDEFF"/>
<path d="M136.693 291.778C136.693 291.778 89.6625 289.434 110.676 250.3C131.69 211.166 190.733 224.881 193.402 224.881C196.071 224.881 208.078 231.905 238.43 202.135C268.782 172.365 325.16 153.637 347.508 206.819C369.857 260 350.177 293.116 319.49 294.787C288.802 296.457 136.693 291.765 136.693 291.765" fill="#95DCFC"/>
<path d="M300.245 257.669L287.984 195.443C287.614 193.566 281.853 187.725 279.864 188.182L182.406 216.044C181.524 216.234 180.734 216.721 180.167 217.424C179.599 218.127 179.29 219.004 179.289 219.908L176.219 279.846C176.284 282.004 183.293 287.556 185.502 287.059L297.18 262.09C299.246 261.628 300.624 259.629 300.254 257.669" fill="#369EDD"/>
<path d="M294.984 252.713L282.714 190.487C282.344 188.605 280.467 187.465 278.478 187.923L177.115 213.186C176.23 213.378 175.438 213.869 174.871 214.576C174.303 215.283 173.995 216.164 173.998 217.072L175.953 278.999C176.017 281.158 178.028 282.613 180.232 282.12L291.91 257.151C293.977 256.685 295.354 254.686 294.984 252.73" fill="#59B6FC"/>
<path d="M290.679 251.094L279.257 193.164C279.185 192.842 279.049 192.538 278.857 192.27C278.665 192.002 278.421 191.776 278.139 191.605C277.858 191.435 277.545 191.323 277.219 191.277C276.893 191.231 276.561 191.252 276.244 191.338L179.987 215.565C179.359 215.7 178.797 216.047 178.394 216.547C177.99 217.047 177.77 217.671 177.77 218.315L179.595 275.822C179.611 276.185 179.708 276.539 179.88 276.859C180.051 277.178 180.292 277.455 180.585 277.668C180.878 277.882 181.216 278.026 181.572 278.09C181.928 278.155 182.294 278.138 182.643 278.041L288.492 254.22C289.189 254.077 289.805 253.671 290.212 253.086C290.619 252.501 290.786 251.782 290.679 251.077" fill="#E1F1F9"/>
<path d="M242.154 240.556C242.253 248.068 236.88 255.411 230.156 256.961C223.431 258.511 217.907 253.667 217.813 246.168C217.718 238.67 223.086 231.309 229.807 229.764C236.527 228.218 242.06 233.058 242.154 240.556Z" fill="#93F9D2"/>
<path d="M236.149 241.139C236.644 241.342 236.657 242.141 236.149 242.572L231.736 246.458L227.327 250.343C227.24 250.445 227.123 250.517 226.992 250.548C226.862 250.58 226.725 250.569 226.601 250.518C226.477 250.467 226.372 250.378 226.301 250.263C226.231 250.149 226.198 250.015 226.208 249.881L226.13 244.144L226.057 238.402C226.057 237.763 226.664 237.224 227.164 237.431L231.645 239.278L236.149 241.139Z" fill="#00FF8B"/>
<path d="M193.165 224.32C193.139 222.291 194.379 220.987 196.428 220.517C197.371 220.348 198.325 220.257 199.283 220.245L199.179 221.889C199.179 221.889 197.251 222.084 196.454 222.269C195.322 222.528 194.766 223.059 194.775 223.918C194.784 224.778 195.257 224.95 196.863 225.093C198.852 225.283 199.563 225.719 199.584 227.579C199.614 229.798 198.292 231.115 196.377 231.555C195.417 231.723 194.445 231.814 193.471 231.827L193.613 230.174C194.528 230.101 195.44 229.978 196.342 229.807C197.47 229.548 197.974 229.03 197.961 228.002C197.961 227.169 197.53 226.936 196.123 226.863C194.052 226.737 193.191 226.228 193.165 224.32Z" fill="#40FFB6"/>
<path d="M206.726 218.332V220.059L204.113 220.659L204.225 229.565L202.602 229.941L202.49 221.035L199.847 221.639V219.912L206.726 218.332Z" fill="#40FFB6"/>
<path d="M212.25 223.897L211.127 218.988L210.477 219.139L209.456 224.54L212.25 223.897ZM207.084 228.93L209.237 217.762L212.414 217.033L214.795 227.16L213.172 227.536L212.621 225.563L209.176 226.357L208.746 228.555L207.084 228.93Z" fill="#40FFB6"/>
<path d="M217.683 221.121L219.69 220.659C220.805 220.404 221.209 219.571 221.196 218.479C221.196 217.309 220.663 216.86 219.616 217.098L217.636 217.555L217.683 221.121ZM216.142 226.845L216.004 216.2L219.595 215.375C221.748 214.874 222.828 215.634 222.863 218.065C222.863 219.666 222.372 220.707 221.399 221.471L222.953 225.278L221.179 225.689L219.823 222.36L217.705 222.844L217.752 226.474L216.142 226.845Z" fill="#40FFB6"/>
<path d="M230.207 212.936V214.663L227.594 215.263L227.71 224.199L226.087 224.575L225.975 215.664L223.332 216.273V214.546L230.207 212.936Z" fill="#40FFB6"/>
<path d="M234.005 217.387C233.957 213.665 234.866 211.697 237.664 211.054C238.722 210.843 239.798 210.74 240.876 210.747V212.323C239.891 212.409 238.912 212.554 237.944 212.755C236.127 213.186 235.658 214.188 235.692 217.003C235.727 219.74 236.123 220.668 237.996 220.24C238.475 220.122 238.948 219.978 239.412 219.809L239.386 217.546L238.297 217.797V216.182L240.983 215.565L241.052 220.948C240.026 221.373 238.975 221.733 237.905 222.028C234.96 222.705 234.095 220.927 234.031 217.391" fill="#40FFB6"/>
<path d="M247.209 215.863L246.085 210.954L245.435 211.101L244.415 216.506L247.209 215.863ZM242.042 220.896L244.195 209.728L247.372 208.999L249.753 219.127L248.13 219.502L247.579 217.529L244.135 218.324L243.704 220.521L242.042 220.896Z" fill="#40FFB6"/>
<path d="M253.594 207.561L255.858 215.155L257.912 206.568L260.529 205.968L260.663 216.614L259.04 216.985L258.932 208.589L258.738 208.632L256.711 217.089L255.057 217.469L252.81 209.996L252.603 210.044L252.711 218.44L251.101 218.811L250.963 208.166L253.594 207.561Z" fill="#40FFB6"/>
<path d="M268.61 204.112V205.839L264.262 206.836L264.296 209.62L267.822 208.813V210.501L264.296 211.313L264.331 214.037L268.683 213.035V214.762L262.738 216.13L262.6 205.485L268.61 204.112Z" fill="#40FFB6"/>
<path d="M333.831 173.738C280.618 189.512 272.515 244.511 272.515 244.511L290.731 251.656C320.062 236.429 323.02 209.09 328.307 193.928C331.054 186.028 334.029 180.463 336.246 176.945C336.448 176.621 336.561 176.248 336.572 175.865C336.584 175.483 336.493 175.104 336.311 174.768C336.128 174.432 335.859 174.15 335.532 173.953C335.206 173.755 334.832 173.648 334.451 173.643C334.24 173.643 334.031 173.675 333.831 173.738Z" fill="url(#paint0_linear_5093_1081)"/>
<path d="M290.83 235.052C289.788 238.169 290.025 245.327 290.025 245.327C290.025 245.327 314.715 247.947 322.607 236.36C337.313 214.775 346.471 218.989 351.689 219.243C351.817 219.249 351.943 219.212 352.048 219.138C352.153 219.064 352.23 218.958 352.269 218.835C352.307 218.713 352.304 218.581 352.26 218.46C352.215 218.34 352.133 218.237 352.024 218.168C341.838 211.693 333.051 209.241 325.569 209.241C301.369 209.241 290.83 235.052 290.83 235.052Z" fill="url(#paint1_linear_5093_1081)"/>
<path d="M309.885 220.314C303.25 226.681 301.098 234.733 299.311 243.626C297.548 252.552 296.271 261.568 295.488 270.633L299.41 271.496C299.599 271.535 301.377 267.395 301.562 266.976C305.149 259.448 308.653 251.867 311.818 244.122C314.616 237.288 318.452 229.228 316.528 221.674C316.213 220.443 315.666 219.148 314.53 218.63C314.204 218.476 313.848 218.396 313.488 218.397C312.196 218.397 310.905 219.347 309.872 220.314" fill="url(#paint2_linear_5093_1081)"/>
<mask id="mask1_5093_1081" style="mask-type:luminance" maskUnits="userSpaceOnUse" x="-92" y="27" width="461" height="309">
<path d="M369 27.3428H-91.4551V335.151H369V27.3428Z" fill="white"/>
</mask>
<g mask="url(#mask1_5093_1081)">
<path d="M297.176 270.914C297.176 270.914 305.911 232.924 312.244 221.674" stroke="#006644" stroke-width="0.91" stroke-miterlimit="13.33" stroke-linecap="round"/>
<path d="M308.193 231.318C308.193 231.318 311.073 226.137 314.965 225.831" stroke="#006644" stroke-width="0.91" stroke-miterlimit="13.33" stroke-linecap="round"/>
<path d="M304.658 242.486C304.658 242.486 307.538 237.306 311.43 236.999" stroke="#006644" stroke-width="0.91" stroke-miterlimit="13.33" stroke-linecap="round"/>
<path d="M301.791 252.475C301.791 252.475 304.675 247.295 308.567 246.989" stroke="#006644" stroke-width="0.91" stroke-miterlimit="13.33" stroke-linecap="round"/>
<path d="M299.363 262.517C299.363 262.517 301.029 258.83 304.8 257.768" stroke="#006644" stroke-width="0.91" stroke-miterlimit="13.33" stroke-linecap="round"/>
<path d="M307.758 232.337C307.758 232.337 308.864 227.588 306.733 225.084" stroke="#006644" stroke-width="0.74" stroke-miterlimit="13.33" stroke-linecap="round"/>
<path d="M305.02 240.988C305.02 240.988 306.126 236.239 303.995 233.74" stroke="#006644" stroke-width="0.74" stroke-miterlimit="13.33" stroke-linecap="round"/>
<path d="M302.053 251.426C302.053 251.426 303.16 246.678 301.029 244.174" stroke="#006644" stroke-width="0.74" stroke-miterlimit="13.33" stroke-linecap="round"/>
<path d="M299.263 262.254C299.263 262.254 300.267 258.709 298.135 256.21" stroke="#006644" stroke-width="0.74" stroke-miterlimit="13.33" stroke-linecap="round"/>
</g>
<path d="M277.892 226.716C276.17 227.022 275.387 229.025 275.034 230.769C273.221 239.801 276.05 247.636 279.662 255.972C283.303 264.306 287.397 272.434 291.923 280.32L295.63 278.77C295.807 278.693 294.902 274.281 294.829 273.823C293.473 265.586 292.027 257.354 290.21 249.19C288.604 241.981 287.162 233.17 281.268 228.071C280.407 227.342 279.386 226.681 278.323 226.681C278.179 226.68 278.035 226.692 277.892 226.716Z" fill="url(#paint3_linear_5093_1081)"/>
<mask id="mask2_5093_1081" style="mask-type:luminance" maskUnits="userSpaceOnUse" x="-92" y="27" width="461" height="309">
<path d="M369 27.3428H-91.4551V335.151H369V27.3428Z" fill="white"/>
</mask>
<g mask="url(#mask2_5093_1081)">
<path d="M293.451 279.556C293.451 279.556 278.947 243.375 277.729 230.523" stroke="#006644" stroke-width="0.91" stroke-miterlimit="13.33" stroke-linecap="round"/>
<path d="M279.907 240.755C279.907 240.755 279.322 234.858 282.34 232.371" stroke="#006644" stroke-width="0.91" stroke-miterlimit="13.33" stroke-linecap="round"/>
<path d="M283.377 251.944C283.377 251.944 282.787 246.043 285.805 243.561" stroke="#006644" stroke-width="0.91" stroke-miterlimit="13.33" stroke-linecap="round"/>
<path d="M286.727 261.783C286.727 261.783 286.137 255.882 289.155 253.399" stroke="#006644" stroke-width="0.91" stroke-miterlimit="13.33" stroke-linecap="round"/>
<path d="M290.455 271.414C290.455 271.414 289.723 267.434 292.212 264.399" stroke="#006644" stroke-width="0.91" stroke-miterlimit="13.33" stroke-linecap="round"/>
<path d="M280.135 241.838C280.135 241.838 278.327 237.297 275.163 236.477" stroke="#006644" stroke-width="0.74" stroke-miterlimit="13.33" stroke-linecap="round"/>
<path d="M282.818 250.533C282.818 250.533 281.009 245.987 277.845 245.171" stroke="#006644" stroke-width="0.74" stroke-miterlimit="13.33" stroke-linecap="round"/>
<path d="M286.339 260.773C286.339 260.773 284.535 256.227 281.367 255.411" stroke="#006644" stroke-width="0.74" stroke-miterlimit="13.33" stroke-linecap="round"/>
<path d="M290.227 271.255C290.227 271.255 289.03 267.775 285.861 266.938" stroke="#006644" stroke-width="0.74" stroke-miterlimit="13.33" stroke-linecap="round"/>
</g>
<path d="M292.009 205.428C285.177 216.299 285.095 227.709 285.823 240.12C286.585 252.528 288.049 264.883 290.205 277.126L295.893 276.776C296.172 276.776 297.128 270.641 297.253 270.015C299.483 258.748 301.584 247.446 303.168 236.066C304.568 226.016 306.961 213.963 301.623 204.729C300.762 203.222 299.509 201.729 297.796 201.461C297.615 201.432 297.432 201.417 297.249 201.418C295.044 201.418 293.232 203.482 292.009 205.428Z" fill="url(#paint4_linear_5093_1081)"/>
<mask id="mask3_5093_1081" style="mask-type:luminance" maskUnits="userSpaceOnUse" x="-92" y="27" width="461" height="309">
<path d="M369 27.3428H-91.4551V335.151H369V27.3428Z" fill="white"/>
</mask>
<g mask="url(#mask3_5093_1081)">
<path d="M292.612 276.819C292.612 276.819 291.04 223.491 295.712 206.314" stroke="#006644" stroke-width="1.26" stroke-miterlimit="13.33" stroke-linecap="round"/>
<path d="M293.602 220.534C293.602 220.534 295.707 212.634 300.921 210.773" stroke="#006644" stroke-width="1.26" stroke-miterlimit="13.33" stroke-linecap="round"/>
<path d="M292.719 236.567C292.719 236.567 294.825 228.667 300.038 226.806" stroke="#006644" stroke-width="1.26" stroke-miterlimit="13.33" stroke-linecap="round"/>
<path d="M292.371 250.801C292.371 250.801 294.476 242.9 299.69 241.04" stroke="#006644" stroke-width="1.26" stroke-miterlimit="13.33" stroke-linecap="round"/>
<path d="M292.616 264.939C292.616 264.939 293.594 259.461 298.385 256.65" stroke="#006644" stroke-width="1.26" stroke-miterlimit="13.33" stroke-linecap="round"/>
<path d="M293.369 222.041C293.369 222.041 293.193 215.349 289.383 212.871" stroke="#006644" stroke-width="1.03" stroke-miterlimit="13.33" stroke-linecap="round"/>
<path d="M292.72 234.465C292.72 234.465 292.543 227.774 288.733 225.296" stroke="#006644" stroke-width="1.03" stroke-miterlimit="13.33" stroke-linecap="round"/>
<path d="M292.354 249.32C292.354 249.32 292.177 242.629 288.367 240.151" stroke="#006644" stroke-width="1.03" stroke-miterlimit="13.33" stroke-linecap="round"/>
<path d="M292.388 264.628C292.388 264.628 292.5 259.586 288.69 257.108" stroke="#006644" stroke-width="1.03" stroke-miterlimit="13.33" stroke-linecap="round"/>
<path d="M302.716 292.408H286.072C284.199 292.408 282.628 291.303 282.503 289.87L280.604 271.173C280.445 269.576 282.09 268.207 284.178 268.207H304.615C306.703 268.207 308.347 269.576 308.184 271.173L306.29 289.87C306.143 291.303 304.567 292.408 302.716 292.408Z" fill="#D85C56"/>
<path d="M300.314 290.958H286.072C284.204 290.958 282.628 289.853 282.503 288.419L281.16 275.598C280.996 274 282.09 272.533 284.174 272.533H302.191C304.279 272.533 305.928 273.897 305.764 275.499L303.87 288.419C303.724 289.853 302.148 290.958 300.297 290.958" fill="#F77469"/>
<path d="M307.598 271.85H281.19C280.779 271.85 280.385 271.687 280.094 271.395C279.803 271.104 279.64 270.708 279.64 270.296V266.89C279.64 266.478 279.803 266.083 280.094 265.791C280.385 265.5 280.779 265.336 281.19 265.336H307.598C308.01 265.336 308.404 265.5 308.694 265.791C308.985 266.083 309.148 266.478 309.148 266.89V270.296C309.148 270.708 308.985 271.104 308.694 271.395C308.404 271.687 308.01 271.85 307.598 271.85Z" fill="#D6505A"/>
<path d="M305.519 271.358H281.014C280.833 271.358 280.655 271.323 280.488 271.253C280.321 271.184 280.17 271.083 280.042 270.955C279.915 270.827 279.814 270.675 279.745 270.508C279.676 270.341 279.64 270.162 279.64 269.981V267.201C279.64 266.836 279.785 266.485 280.042 266.227C280.3 265.969 280.649 265.824 281.014 265.824H305.519C305.699 265.824 305.878 265.859 306.045 265.929C306.211 265.998 306.363 266.099 306.49 266.227C306.618 266.355 306.719 266.507 306.788 266.674C306.857 266.841 306.892 267.02 306.892 267.201V269.981C306.892 270.162 306.857 270.341 306.788 270.508C306.719 270.675 306.618 270.827 306.49 270.955C306.363 271.083 306.211 271.184 306.045 271.253C305.878 271.323 305.699 271.358 305.519 271.358Z" fill="#F26B71"/>
<path d="M258.183 86.9178C258.183 86.9178 268.515 88.964 265.734 99.1608C264.158 104.972 266.233 110.014 266.759 113.636C267.383 117.918 264.722 119.598 262.156 120.427C259.199 121.376 241.186 120.28 236.872 114.914C231.946 108.792 239.153 102.075 239.05 97.6024C238.917 91.8996 243.786 87.2027 243.786 87.2027C243.786 87.2027 250.399 81.3531 258.196 86.9178" fill="#011F44"/>
<path d="M258.165 88.1567C258.165 88.1567 263.039 92.8191 260.654 101.587C259.298 106.586 260.706 111.538 259.659 114.508C256.762 122.749 253.266 119.718 251.049 120.431C248.509 121.251 244.229 122.158 240.518 117.521C236.282 112.259 238.917 105.546 240.195 102.148C241.917 97.5592 243.911 88.4934 243.911 88.4934C243.911 88.4934 251.324 81.9661 258.157 88.1567" fill="#00162B"/>
<path d="M251.596 199.229L262.733 163.929C263.595 159.966 260.383 154.924 254.097 154.799C248.419 154.695 245.577 159.875 244.931 165.129C244.285 170.383 239.713 197.434 239.713 197.434C239.564 198.198 239.572 198.985 239.737 199.746C239.901 200.507 240.219 201.227 240.67 201.861C241.122 202.495 241.697 203.03 242.362 203.433C243.026 203.837 243.766 204.1 244.535 204.207C246.124 204.44 247.742 204.053 249.055 203.127C250.369 202.2 251.278 200.804 251.596 199.225" fill="#002D4C"/>
<path d="M236.695 156.798C236.695 156.798 249.469 158.244 258.583 156.547L258.656 161.728C258.656 161.728 250.364 164.749 237.216 162.103C237.216 162.103 235.925 162.017 236.695 156.81" fill="#002D4C"/>
<path d="M237.815 153.866C237.815 153.866 249.189 155.295 257.873 153.68C257.873 153.68 254.304 124.756 256.581 118.712C256.581 118.712 251.669 115.457 241.414 117.629C241.414 117.629 234.151 129.242 237.793 153.862" fill="white"/>
<path d="M216.168 190.224L236.695 159.444C239.235 156.288 245.189 155.675 249.223 160.549C252.87 164.948 250.618 170.418 246.933 174.221C243.248 178.024 225.015 198.474 225.015 198.474C224.511 199.069 223.89 199.554 223.192 199.9C222.494 200.246 221.733 200.445 220.956 200.486C220.178 200.526 219.4 200.407 218.67 200.135C217.94 199.863 217.273 199.445 216.71 198.906C215.534 197.804 214.823 196.292 214.722 194.682C214.622 193.071 215.139 191.482 216.168 190.241" fill="#002D4C"/>
<path d="M236.695 152.752C236.695 152.752 249.469 154.199 258.583 152.502L258.656 157.682C258.656 157.682 250.364 160.704 237.216 158.058C237.216 158.058 235.925 157.972 236.695 152.765" fill="#003764"/>
</g>
<path d="M233.656 120.081C231.805 121.566 223.237 129.009 217.757 133.783C216.895 133.14 215.914 132.423 214.708 131.599C207.247 126.5 206.184 126.177 206.184 126.177C206.184 126.177 204.079 129.63 201.707 131.482C206.07 135.912 210.844 139.915 215.966 143.436C216.342 143.698 216.803 143.81 217.257 143.751C218.616 143.609 219.919 143.136 221.054 142.374C221.416 142.18 221.791 141.964 222.191 141.696C226.462 138.83 233.789 134.936 233.789 134.936C233.789 134.936 242.331 127.895 239.472 120.258C238.543 119.573 237.43 119.183 236.278 119.14C235.334 119.144 234.421 119.477 233.695 120.081" fill="url(#paint5_linear_5093_1081)"/>
<path d="M234.228 119.615C230.642 131.901 233.798 144.749 234.34 148.491C234.9 152.239 231.486 154.371 231.486 154.371C231.486 154.371 222.876 162.388 221.153 164.836C219.358 167.426 221.093 167.918 221.093 167.918C223.616 169.04 227.728 169.938 228.795 169.938C229.859 169.938 230.461 168.807 230.461 168.807C230.461 168.807 243.489 157.557 241.918 143.402C240.351 129.242 244.57 114.223 244.57 114.223C240.781 117.18 234.237 119.615 234.237 119.615" fill="url(#paint6_linear_5093_1081)"/>
<mask id="mask4_5093_1081" style="mask-type:luminance" maskUnits="userSpaceOnUse" x="-92" y="27" width="461" height="309">
<path d="M369 27.3428H-91.4551V335.151H369V27.3428Z" fill="white"/>
</mask>
<g mask="url(#mask4_5093_1081)">
<path d="M245.435 113.765C244.709 114.164 244.118 114.769 243.735 115.504C243.352 116.239 243.194 117.072 243.282 117.897C243.471 119.783 243.895 121.638 244.544 123.418C244.544 123.418 244.927 120.944 245.633 121.311C246.339 121.678 248.242 125.438 248.242 125.438C248.242 125.438 250.743 122.369 251.303 122.162C251.863 121.955 252.724 122.27 252.349 124.372C252.349 124.372 255.363 122.261 255.393 119.796C255.423 117.331 254.235 114.292 252.707 113.359L245.435 113.765Z" fill="#DDDDDD"/>
</g>
<path d="M252.84 127.295C251.346 133.809 251.346 152.463 251.346 152.463C251.346 152.463 252.018 167.819 254.188 172.464C254.188 172.464 254.261 173.548 257.473 173.099C260.684 172.667 266.737 171.078 266.737 171.078C266.737 171.078 268.567 170.646 267.108 167.37C265.653 164.11 262.428 156.957 262.204 155.235C261.98 153.508 261.222 149.053 261.98 141.528C262.079 140.544 262.221 139.529 262.381 138.506C263.905 140.548 265.631 142.94 266.875 144.895C269.639 149.243 273.449 149.165 275.537 148.418C277.63 147.667 276.734 145.047 276.734 145.047C276.734 145.047 266.651 123.621 265.007 120.478C264.637 119.747 264.054 119.145 263.336 118.752C263.338 118.723 263.338 118.694 263.336 118.665C263.336 118.665 254.821 115.587 252.522 113.152C252.522 113.152 254.351 120.793 252.857 127.312" fill="url(#paint7_linear_5093_1081)"/>
<mask id="mask5_5093_1081" style="mask-type:luminance" maskUnits="userSpaceOnUse" x="-92" y="27" width="461" height="309">
<path d="M369 27.3428H-91.4551V335.151H369V27.3428Z" fill="white"/>
</mask>
<g mask="url(#mask5_5093_1081)">
<path d="M206.464 127.066C206.464 127.066 204.768 125.957 204.191 125.516C201.513 127.58 200.747 129.57 200.747 129.57L202.266 131.327C202.266 131.327 204.251 130.697 206.451 127.066" fill="#FBC7AF"/>
<path d="M245.538 113.722C245.187 113.823 244.859 113.993 244.574 114.223C243.851 114.815 243.394 117.478 243.519 118.445C243.747 120.15 244.103 121.836 244.583 123.487C244.583 123.487 244.294 120.293 245.323 120.815C246.352 121.338 248.496 125.046 248.496 125.046C248.496 125.046 250.649 121.976 251.226 121.713C251.803 121.45 252.849 122.218 252.474 124.165C252.474 124.165 254.239 121.238 254.278 118.95C254.317 116.662 254.248 114.223 252.72 113.364L245.538 113.722Z" fill="white"/>
<path d="M252.681 111.426C252.681 111.818 252.905 117.353 252.905 117.353L248.647 124.851L244.772 117.124C245.355 115.817 245.648 114.399 245.633 112.967C245.689 112.885 252.719 111.426 252.719 111.426" fill="#FBC7AF"/>
<path d="M252.681 111.426C252.681 111.607 252.728 112.919 252.784 114.262C252.84 115.786 245.129 116.386 245.375 115.151C245.521 114.432 245.595 113.7 245.594 112.967C245.65 112.885 252.681 111.426 252.681 111.426Z" fill="#E5AD98"/>
<path d="M247.015 131.258C247.252 129.269 247.667 127.305 248.255 125.391C247.605 127.293 247.131 129.251 246.839 131.241C246.527 133.24 246.473 135.271 246.679 137.285C246.912 139.27 247.045 141.269 247.205 143.264L247.635 149.26V149.282C247.641 149.282 247.647 149.279 247.652 149.276C247.657 149.272 247.66 149.266 247.661 149.26C247.751 147.235 247.7 145.224 247.601 143.216C247.502 141.209 247.269 139.21 246.989 137.22C246.744 135.24 246.753 133.236 247.015 131.258Z" fill="#DDDDDD"/>
<path d="M209.775 244.852C209.796 245.237 209.731 245.622 209.585 245.979C209.047 246.488 208.177 246.389 207.549 246.259H207.51L203.071 245.132C200.411 244.269 197.772 243.332 195.077 242.585C194.449 242.471 193.859 242.208 193.354 241.817C192.89 241.385 192.679 240.617 193.062 240.12C193.426 239.927 193.826 239.809 194.237 239.775C194.732 239.71 195.163 239.65 195.554 239.589L196.846 239.382L197.574 239.309L197.793 239.279C199.976 239.015 202.74 238.618 204.488 238.294L206.184 231.538L208.152 223.599L214.945 225.689L211.932 233.494L211.691 234.115L209.568 239.576L209.478 239.814C209.516 240.306 209.62 241.109 209.676 241.713C209.676 241.925 209.714 242.102 209.719 242.231C209.723 242.361 209.719 242.37 209.719 242.439C209.757 243.302 209.796 244.165 209.792 244.843" fill="#FBC7AF"/>
<path d="M214.752 193.259C216.568 188.795 220.456 186.784 223.44 188.739C226.423 190.695 227.065 195.819 225.248 200.283L211.398 236.585L204.974 234.517L214.752 193.259Z" fill="#002D4C"/>
</g>
<path d="M197.285 239.309L196.855 239.386C196.377 239.468 195.946 239.537 195.563 239.594C195.171 239.654 194.741 239.714 194.246 239.779C193.835 239.814 193.435 239.931 193.07 240.125C192.922 240.216 192.793 240.336 192.692 240.479C192.261 241.113 192.575 241.985 193.122 242.434C193.273 242.558 193.44 242.663 193.617 242.745L207.502 246.263H207.536C208.169 246.393 209.039 246.492 209.577 245.983C209.62 245.945 209.659 245.903 209.693 245.858C209.985 245.407 210.098 244.864 210.012 244.334C209.977 243.665 209.887 242.784 209.796 241.929L209.775 241.696L209.641 241.726L209.547 241.748C208.821 241.926 208.082 242.05 207.338 242.119C205.97 242.181 204.599 242.1 203.248 241.877C202.206 241.761 201.171 241.586 200.148 241.355C199.315 241.164 198.51 240.865 197.755 240.466C197.637 240.419 197.537 240.336 197.47 240.228C197.454 240.148 197.454 240.066 197.47 239.986C197.484 239.841 197.505 239.697 197.535 239.555L197.582 239.304V239.257L197.285 239.309Z" fill="url(#paint8_linear_5093_1081)"/>
<mask id="mask6_5093_1081" style="mask-type:luminance" maskUnits="userSpaceOnUse" x="-92" y="27" width="461" height="309">
<path d="M369 27.3428H-91.4551V335.151H369V27.3428Z" fill="white"/>
</mask>
<g mask="url(#mask6_5093_1081)">
<path d="M272.95 243.246C273.234 243.506 273.458 243.826 273.604 244.182C273.57 244.925 272.877 245.478 272.339 245.814L272.308 245.836L268.348 248.141C265.842 249.384 263.302 250.563 260.852 251.919C260.327 252.268 259.726 252.489 259.1 252.562C258.471 252.562 257.783 252.178 257.709 251.552C257.837 251.159 258.042 250.796 258.312 250.485C258.618 250.092 258.885 249.747 259.126 249.428C259.367 249.108 259.608 248.78 259.896 248.383L260.353 247.822L260.495 247.649C261.873 245.922 263.573 243.712 264.602 242.253L261.102 236.265L256.986 229.194L263.302 225.926L266.574 233.636L266.832 234.245L269.123 239.641L269.222 239.874C269.592 240.198 270.233 240.712 270.685 241.096C270.849 241.23 270.982 241.346 271.077 241.437L271.232 241.575C271.865 242.171 272.489 242.762 272.954 243.246" fill="#FBC7AF"/>
<path d="M250.903 197.666C248.272 193.634 244.07 192.391 241.517 194.895C238.964 197.399 239.304 202.536 241.948 206.551L262.462 239.533L268.373 236.274L250.903 197.666Z" fill="#002D4C"/>
</g>
<path d="M270.681 241.091L270.629 241.178C270.233 241.812 269.791 242.416 269.308 242.987C268.373 243.991 267.335 244.894 266.212 245.68C265.383 246.326 264.521 246.927 263.629 247.481C262.9 247.925 262.117 248.275 261.3 248.521C261.181 248.568 261.05 248.579 260.925 248.551C260.856 248.508 260.795 248.452 260.745 248.387C260.646 248.262 260.559 248.145 260.486 248.033L260.348 247.817L260.323 247.779L260.146 248.025C260.056 248.146 259.974 248.266 259.892 248.379C259.604 248.776 259.345 249.125 259.121 249.423C258.88 249.743 258.618 250.088 258.308 250.481C258.037 250.792 257.832 251.155 257.705 251.547C257.67 251.718 257.67 251.894 257.705 252.065C257.834 252.825 258.669 253.227 259.371 253.166C259.567 253.15 259.759 253.107 259.944 253.041L272.326 245.832L272.356 245.81C272.894 245.46 273.587 244.921 273.617 244.178C273.622 244.122 273.622 244.066 273.617 244.01C273.504 243.49 273.206 243.029 272.778 242.715C272.287 242.257 271.611 241.696 270.952 241.143L270.771 240.992L270.681 241.091Z" fill="url(#paint9_linear_5093_1081)"/>
<mask id="mask7_5093_1081" style="mask-type:luminance" maskUnits="userSpaceOnUse" x="-92" y="27" width="461" height="309">
<path d="M369 27.3428H-91.4551V335.151H369V27.3428Z" fill="white"/>
</mask>
<g mask="url(#mask7_5093_1081)">
<path d="M205.228 125.922C205.228 125.922 203.33 129.056 201.19 130.714C201.472 131.099 201.795 131.452 202.154 131.767C202.585 132.169 206.95 126.885 206.554 126.643C206.135 126.362 205.691 126.121 205.228 125.922Z" fill="white"/>
<path d="M257.791 141.852C257.791 141.852 256.181 140.621 255.574 140.224C256.063 138.597 256.674 137.01 257.404 135.476L260.392 136.46C260.392 136.46 260.465 138.541 257.808 141.839" fill="#FBC7AF"/>
<path d="M256.314 141.066C256.314 141.066 258.622 138.221 259.457 135.64C259.915 135.781 260.356 135.969 260.775 136.201C261.296 136.477 257.796 142.37 257.438 142.076C257.035 141.773 256.659 141.435 256.314 141.066Z" fill="white"/>
</g>
<path d="M256.874 141.882C256.874 141.882 257.533 142.78 264.83 148.112C272.123 153.447 273.492 153.042 273.492 153.042C279.119 152.696 276.936 145.724 276.936 145.724C271.753 141.901 266.205 138.601 260.374 135.873C259.449 138.731 256.896 141.882 256.896 141.882" fill="url(#paint10_linear_5093_1081)"/>
<mask id="mask8_5093_1081" style="mask-type:luminance" maskUnits="userSpaceOnUse" x="-92" y="27" width="461" height="309">
<path d="M369 27.3428H-91.4551V335.151H369V27.3428Z" fill="white"/>
</mask>
<g mask="url(#mask8_5093_1081)">
<path d="M259.875 94.8306C259.875 94.8306 265.786 102.109 255.075 111.196L259.875 94.8306Z" fill="#011F44"/>
<path d="M244.828 98.8499C244.828 98.8499 241.875 105.995 241.384 105.697C240.893 105.399 242.129 97.434 242.869 95.8237C242.964 95.6726 244.828 98.7765 244.828 98.7765" fill="#77444C"/>
<path d="M259.746 104.237C259.005 108.326 257.227 111.879 254.33 113.545C252.354 114.676 249.542 114.797 247.36 114.305C242.047 113.105 239.528 107.009 240.902 101.216C242.486 94.4896 246.765 89.007 252.194 89.9912C257.623 90.9755 261.007 97.3604 259.754 104.237" fill="#FBC7AF"/>
<path d="M252.681 99.7305C253.38 99.3404 254.181 99.1752 254.976 99.257C255.772 99.3389 256.523 99.6639 257.128 100.188" stroke="#010630" stroke-width="1.22" stroke-miterlimit="13.33" stroke-linecap="round"/>
<path d="M244.001 98.2626C244.534 98.1337 245.09 98.1434 245.617 98.2907C246.145 98.4381 246.626 98.7182 247.015 99.1045" stroke="#010630" stroke-width="1.22" stroke-miterlimit="13.33" stroke-linecap="round"/>
<path d="M245.857 108.222C245.396 108.49 246.503 110.7 248.759 110.916C249.921 111.024 250.662 110.325 251.187 109.215C251.458 108.65 249.96 108.455 248.251 108.226C246.542 107.998 246.309 107.954 245.857 108.226" fill="#FF8A8A"/>
<path d="M259.324 100.067C259.324 100.067 262.807 101.164 265.166 103.322C265.165 104.146 265.227 104.969 265.351 105.783C263.487 104.501 261.273 103.83 259.014 103.862" fill="#3EA3FF"/>
<path d="M257.929 106.033C258.7 104.414 259.931 102.649 261.804 103.775C264.017 105.096 261.649 111.594 256.978 108.788L257.929 106.033Z" fill="#FBC7AF"/>
<path d="M245.835 100.577C245.985 100.636 246.147 100.66 246.308 100.646C246.469 100.632 246.624 100.58 246.761 100.495C246.585 100.755 246.368 100.985 246.12 101.177L245.835 100.577Z" fill="#010630"/>
<path d="M254.769 101.885C254.919 101.945 255.081 101.968 255.241 101.954C255.402 101.94 255.557 101.888 255.694 101.803C255.519 102.062 255.302 102.291 255.053 102.481L254.769 101.885Z" fill="#010630"/>
<path d="M246.301 102.027C246.12 102.731 245.573 103.201 245.078 103.076C244.583 102.951 244.324 102.273 244.505 101.569C244.686 100.866 245.233 100.395 245.728 100.52C246.223 100.646 246.477 101.323 246.301 102.027Z" fill="#010630"/>
</g>
<mask id="mask9_5093_1081" style="mask-type:luminance" maskUnits="userSpaceOnUse" x="244" y="100" width="3" height="4">
<path d="M244.501 101.565C244.32 102.269 244.578 102.943 245.073 103.072C245.569 103.197 246.115 102.727 246.296 102.023C246.473 101.319 246.219 100.646 245.724 100.516C245.669 100.51 245.614 100.51 245.56 100.516C245.295 100.561 245.05 100.688 244.86 100.879C244.67 101.071 244.545 101.316 244.501 101.583" fill="white"/>
</mask>
<g mask="url(#mask9_5093_1081)">
<path d="M246.58 101.656C246.562 101.71 246.528 101.757 246.484 101.792C246.439 101.828 246.385 101.849 246.328 101.854C246.271 101.858 246.215 101.847 246.165 101.82C246.115 101.793 246.073 101.752 246.046 101.702C246.019 101.652 246.007 101.595 246.011 101.538C246.016 101.481 246.037 101.427 246.071 101.382C246.106 101.337 246.153 101.303 246.207 101.284C246.261 101.265 246.318 101.262 246.374 101.276C246.451 101.299 246.517 101.352 246.555 101.423C246.594 101.495 246.603 101.578 246.58 101.656Z" fill="white"/>
</g>
<mask id="mask10_5093_1081" style="mask-type:luminance" maskUnits="userSpaceOnUse" x="-92" y="27" width="461" height="309">
<path d="M369 27.3428H-91.4551V335.151H369V27.3428Z" fill="white"/>
</mask>
<g mask="url(#mask10_5093_1081)">
<path d="M255.173 103.322C254.993 104.026 254.446 104.496 253.951 104.367C253.456 104.237 253.197 103.568 253.378 102.865C253.559 102.161 254.106 101.69 254.601 101.816C255.096 101.941 255.35 102.619 255.173 103.322Z" fill="#010630"/>
</g>
<mask id="mask11_5093_1081" style="mask-type:luminance" maskUnits="userSpaceOnUse" x="253" y="101" width="3" height="4">
<path d="M253.378 102.891C253.197 103.594 253.456 104.268 253.951 104.393C254.446 104.523 254.993 104.052 255.174 103.348C255.35 102.645 255.096 101.967 254.601 101.842C254.545 101.835 254.489 101.835 254.433 101.842C254.168 101.888 253.924 102.016 253.735 102.208C253.546 102.4 253.421 102.646 253.378 102.912" fill="white"/>
</mask>
<g mask="url(#mask11_5093_1081)">
<path d="M255.509 102.856C255.491 102.91 255.457 102.957 255.412 102.992C255.367 103.027 255.313 103.048 255.256 103.053C255.199 103.057 255.142 103.045 255.092 103.018C255.042 102.99 255.001 102.949 254.974 102.898C254.948 102.848 254.936 102.791 254.941 102.734C254.946 102.677 254.968 102.623 255.003 102.578C255.038 102.533 255.086 102.5 255.14 102.482C255.194 102.464 255.252 102.462 255.307 102.476C255.384 102.5 255.448 102.553 255.486 102.624C255.524 102.696 255.532 102.779 255.509 102.856Z" fill="white"/>
</g>
<mask id="mask12_5093_1081" style="mask-type:luminance" maskUnits="userSpaceOnUse" x="-92" y="0" width="472" height="311">
<path d="M380 0H-92V311H380V0Z" fill="white"/>
</mask>
<g mask="url(#mask12_5093_1081)">
<path d="M257.459 107.54C257.421 108.404 256.267 109.025 254.876 108.956C253.486 108.887 252.409 108.145 252.452 107.294C252.495 106.444 253.645 105.813 255.036 105.878C256.426 105.943 257.498 106.69 257.455 107.54" fill="#F5B19E"/>
<path d="M244.97 106.042C244.703 106.854 243.635 107.225 242.581 106.875C241.526 106.525 240.889 105.58 241.155 104.781C241.422 103.983 242.49 103.603 243.545 103.948C244.6 104.294 245.237 105.243 244.97 106.042Z" fill="#F5B19E"/>
<path d="M248.164 104.116C247.759 104.883 247.405 105.676 247.105 106.491C247.045 106.923 247.966 106.862 247.966 106.862" stroke="#F5B19E" stroke-linecap="round" stroke-linejoin="round"/>
<path d="M256.28 86.1535C245.004 82.0178 240.781 90.7253 240.2 93.6738C240.096 94.1789 239.455 102.144 240.118 102.23C243.183 96.1129 244.423 95.569 245.801 93.9328C245.409 95.7028 245.835 96.8209 247.049 98.4268C247.112 98.5101 247.205 98.5657 247.308 98.5823C247.622 98.6346 247.941 98.6592 248.259 98.6556C248.277 98.6548 248.295 98.6491 248.31 98.6393C248.325 98.6294 248.338 98.6157 248.346 98.5995C248.354 98.5833 248.358 98.5652 248.357 98.547C248.357 98.5288 248.351 98.5112 248.341 98.4959C247.575 97.0127 247.407 95.2908 247.872 93.6868C247.704 96.6266 248.449 97.8311 248.591 98.034C248.607 98.0545 248.63 98.0695 248.655 98.0772C248.837 98.1266 249.029 98.1129 249.202 98.0383C249.23 98.0236 249.252 97.9995 249.263 97.9703C249.275 97.941 249.276 97.9086 249.267 97.8786C249.166 97.5964 249.084 97.308 249.021 97.0152C248.794 95.997 248.81 94.9392 249.069 93.9285C249.069 93.9285 248.901 97.1231 250.253 98.5477C250.321 98.6165 250.408 98.6644 250.502 98.6859C250.716 98.758 250.944 98.7804 251.167 98.7512C251.391 98.722 251.605 98.6421 251.794 98.5175C251.851 98.4731 251.891 98.4099 251.907 98.3389C251.923 98.2679 251.913 98.1936 251.88 98.129C251.352 97.055 251.256 95.8182 251.613 94.6754C251.613 94.6754 251.346 99.1823 255.552 100.611C255.724 100.665 255.905 100.682 256.084 100.661C256.262 100.64 256.435 100.582 256.59 100.49C256.609 100.478 256.625 100.462 256.638 100.443C256.651 100.425 256.659 100.403 256.663 100.381C256.667 100.359 256.667 100.336 256.662 100.314C256.656 100.292 256.647 100.271 256.633 100.253C256.155 99.5361 255.882 98.7013 255.845 97.8397C256.797 99.7651 256.952 100.901 259.517 101.807L259.41 101.056L259.939 100.119C260.6 100.339 261.235 100.628 261.834 100.983C262.131 100.551 262.893 99.981 263.022 96.3417C263.151 92.7025 262.006 88.2128 256.284 86.1147" fill="#011F44"/>
<path d="M265.166 104.967C265.274 105.584 265.411 106.202 265.597 106.806C265.748 107.413 265.943 108.007 266.182 108.585C266.303 108.864 266.447 109.132 266.613 109.388C266.807 109.674 266.929 110.002 266.97 110.346C266.992 110.687 266.921 111.029 266.765 111.333C266.609 111.637 266.373 111.893 266.083 112.073V112.043C266.282 111.823 266.432 111.564 266.524 111.282C266.616 111 266.648 110.702 266.617 110.406C266.567 110.123 266.466 109.851 266.32 109.604C266.163 109.317 266.031 109.018 265.924 108.71C265.525 107.504 265.27 106.255 265.166 104.989V104.967Z" fill="#011F44"/>
<path d="M239.093 97.1532C239.064 97.8284 238.971 98.4992 238.813 99.1563C238.658 99.8257 238.397 100.466 238.038 101.052C237.709 101.603 237.476 102.208 237.35 102.839C237.217 103.488 237.132 104.146 237.096 104.807H237.057C236.935 104.136 236.92 103.45 237.014 102.774C237.09 102.077 237.345 101.412 237.754 100.844C238.139 100.314 238.431 99.721 238.615 99.0916C238.815 98.4578 238.959 97.8078 239.046 97.1489L239.093 97.1532Z" fill="#011F44"/>
<path d="M259.664 107.799C259.987 107.739 261.386 107.346 261.614 106.435C261.842 105.524 261.36 104.669 260.452 105.045" stroke="#E5AD98" stroke-width="0.58" stroke-miterlimit="13.33" stroke-linecap="round"/>
<path d="M260.31 107.557C260.31 107.557 261.515 106.551 260.775 106.072" stroke="#E5AD98" stroke-width="0.58" stroke-miterlimit="13.33" stroke-linecap="round"/>
<path d="M196.049 127.731L198.542 121.316L201.375 123.392C201.568 122.567 201.874 121.773 202.283 121.031C202.32 120.977 202.367 120.932 202.422 120.897C202.477 120.863 202.538 120.84 202.602 120.83C202.667 120.819 202.732 120.823 202.795 120.839C202.858 120.855 202.916 120.883 202.968 120.923L203.114 121.027C203.284 121.153 203.4 121.34 203.437 121.549C203.618 122.581 203.794 123.608 204.173 125.106C204.272 125.507 204.283 125.924 204.203 126.33C204.123 126.735 203.956 127.117 203.713 127.45L203.282 128.016C202.967 128.445 202.571 128.809 202.116 129.085C201.661 129.361 201.156 129.544 200.63 129.624C200.104 129.704 199.568 129.68 199.051 129.552C198.535 129.424 198.049 129.196 197.621 128.879L196.049 127.731Z" fill="#FBC7AF"/>
<path d="M199.675 133.541L195.8 135.065C195.65 135.114 195.491 135.123 195.337 135.093C195.183 135.063 195.039 134.994 194.919 134.892C194.799 134.791 194.706 134.66 194.65 134.513C194.594 134.366 194.576 134.207 194.599 134.051L196.368 120.616C196.385 120.496 196.425 120.379 196.486 120.274C196.547 120.169 196.629 120.078 196.725 120.004C196.822 119.931 196.932 119.877 197.05 119.847C197.167 119.816 197.29 119.809 197.41 119.826L201.367 120.387C201.488 120.405 201.606 120.447 201.711 120.511C201.817 120.575 201.909 120.659 201.982 120.758C202.055 120.858 202.107 120.971 202.136 121.091C202.165 121.211 202.17 121.336 202.15 121.458L200.29 132.812C200.263 132.98 200.19 133.137 200.079 133.266C199.968 133.395 199.824 133.49 199.662 133.541" fill="#005DA3"/>
<path d="M199.782 133.507L196.493 134.802C195.946 135.022 195.421 134.504 195.516 133.839L197.362 120.737C197.381 120.517 197.484 120.312 197.649 120.165C197.814 120.018 198.029 119.94 198.249 119.947L201.534 120.414C201.752 120.469 201.94 120.607 202.057 120.799C202.174 120.991 202.212 121.221 202.163 121.441L200.325 132.769C200.303 132.926 200.241 133.075 200.147 133.202C200.052 133.328 199.926 133.429 199.782 133.494" fill="#3EA3FF"/>
<path d="M201.448 117.737L202.197 120.901C202.23 121.02 202.232 121.144 202.204 121.263C202.176 121.383 202.119 121.493 202.038 121.585C201.956 121.677 201.854 121.747 201.739 121.788C201.624 121.83 201.5 121.843 201.379 121.825L191.477 119.869C191.293 119.825 191.133 119.71 191.032 119.548C190.931 119.387 190.898 119.192 190.939 119.006L191.555 115.876C191.57 115.78 191.605 115.687 191.657 115.605C191.71 115.522 191.778 115.451 191.859 115.396C191.94 115.341 192.031 115.303 192.126 115.285C192.222 115.266 192.321 115.268 192.416 115.289L200.962 117.21C201.089 117.24 201.204 117.305 201.295 117.398C201.386 117.492 201.448 117.609 201.474 117.737" fill="#008BD1"/>
<path d="M201.358 121.825L191.456 119.87C191.367 119.859 191.282 119.831 191.206 119.786C191.129 119.741 191.062 119.68 191.011 119.608C190.959 119.535 190.922 119.453 190.904 119.366C190.886 119.278 190.886 119.188 190.905 119.101C190.905 119.101 201.866 121.92 201.362 121.825" fill="#005DA3"/>
<path d="M201.93 117.836L202.202 120.906C202.245 121.415 201.926 121.937 201.607 121.873L195.352 120.336C195.111 120.293 194.99 119.986 195.068 119.585L195.602 116.822C195.683 116.39 195.946 116.122 196.187 116.183L201.633 117.353C201.793 117.392 201.909 117.577 201.93 117.836Z" fill="#3EA3FF"/>
<path d="M198.684 123.815C198.723 123.631 198.69 123.44 198.592 123.279C198.495 123.119 198.34 123.002 198.159 122.952L195.145 122.088C195.034 122.06 194.918 122.054 194.804 122.071C194.691 122.087 194.581 122.126 194.483 122.185C194.384 122.244 194.298 122.322 194.229 122.414C194.16 122.506 194.11 122.611 194.082 122.723C194.054 122.835 194.048 122.951 194.064 123.065C194.081 123.179 194.119 123.289 194.178 123.388C194.237 123.487 194.315 123.573 194.407 123.642C194.499 123.711 194.604 123.761 194.715 123.789L197.776 124.398C197.872 124.42 197.97 124.422 198.067 124.405C198.163 124.388 198.256 124.352 198.338 124.299C198.421 124.246 198.492 124.177 198.548 124.096C198.603 124.015 198.642 123.924 198.663 123.828" fill="#FFBFA3"/>
<path d="M198.12 125.063C198.158 124.883 198.126 124.696 198.029 124.54C197.933 124.384 197.781 124.271 197.604 124.225L195.137 123.573C195.021 123.523 194.896 123.498 194.77 123.502C194.644 123.505 194.52 123.536 194.408 123.592C194.295 123.649 194.196 123.729 194.118 123.828C194.039 123.927 193.984 124.042 193.954 124.165C193.925 124.288 193.923 124.416 193.949 124.54C193.975 124.663 194.027 124.78 194.102 124.881C194.178 124.982 194.274 125.066 194.385 125.126C194.496 125.185 194.619 125.22 194.745 125.227L197.268 125.624C197.361 125.645 197.458 125.648 197.552 125.631C197.647 125.614 197.737 125.579 197.817 125.526C197.897 125.474 197.966 125.406 198.02 125.326C198.073 125.247 198.11 125.157 198.129 125.063" fill="#FFBFA3"/>
<path d="M197.819 126.302C197.85 126.13 197.815 125.952 197.719 125.805C197.624 125.658 197.476 125.553 197.307 125.512L195.438 125.08C195.333 125.044 195.221 125.03 195.11 125.04C194.999 125.049 194.891 125.082 194.793 125.135C194.695 125.189 194.61 125.263 194.542 125.352C194.474 125.44 194.426 125.542 194.4 125.651C194.373 125.76 194.37 125.873 194.39 125.983C194.41 126.093 194.452 126.197 194.515 126.29C194.577 126.382 194.658 126.461 194.753 126.52C194.847 126.579 194.953 126.618 195.064 126.634L196.992 126.842C197.081 126.862 197.173 126.864 197.263 126.849C197.353 126.833 197.438 126.8 197.515 126.751C197.592 126.702 197.659 126.638 197.711 126.564C197.763 126.489 197.8 126.404 197.819 126.315" fill="#FFBFA3"/>
<path d="M197.729 127.286C197.762 127.117 197.729 126.942 197.638 126.796C197.547 126.65 197.404 126.544 197.238 126.5L195.752 126.319C195.65 126.292 195.543 126.286 195.438 126.301C195.333 126.317 195.232 126.353 195.141 126.408C195.05 126.463 194.971 126.535 194.908 126.621C194.845 126.707 194.801 126.805 194.776 126.908C194.752 127.012 194.748 127.119 194.766 127.224C194.784 127.329 194.822 127.43 194.879 127.52C194.936 127.61 195.01 127.687 195.097 127.748C195.184 127.809 195.283 127.851 195.387 127.873L196.928 127.817C197.015 127.835 197.105 127.836 197.193 127.819C197.281 127.802 197.364 127.768 197.439 127.719C197.513 127.67 197.577 127.606 197.627 127.532C197.677 127.457 197.711 127.374 197.729 127.286Z" fill="#FFBFA3"/>
<mask id="mask13_5093_1081" style="mask-type:luminance" maskUnits="userSpaceOnUse" x="194" y="123" width="5" height="2">
<path d="M198.094 123.504H194.263V124.588H198.094V123.504Z" fill="white"/>
</mask>
<g mask="url(#mask13_5093_1081)">
<g opacity="0.45">
<path d="M194.392 123.862C194.349 123.849 194.313 123.819 194.29 123.78C194.267 123.741 194.258 123.695 194.267 123.651C194.277 123.604 194.305 123.562 194.345 123.535C194.386 123.507 194.434 123.496 194.482 123.504L197.926 124.221C197.974 124.231 198.015 124.259 198.042 124.299C198.069 124.34 198.078 124.389 198.069 124.437C198.059 124.484 198.031 124.526 197.99 124.553C197.95 124.579 197.901 124.589 197.853 124.579L194.409 123.867" fill="#FFBFA3"/>
</g>
</g>
<mask id="mask14_5093_1081" style="mask-type:luminance" maskUnits="userSpaceOnUse" x="194" y="125" width="4" height="1">
<path d="M197.642 125.041H194.56V125.823H197.642V125.041Z" fill="white"/>
</mask>
<g mask="url(#mask14_5093_1081)">
<g opacity="0.45">
<path d="M194.685 125.399C194.638 125.388 194.598 125.358 194.573 125.317C194.548 125.276 194.54 125.226 194.552 125.179C194.563 125.132 194.593 125.092 194.634 125.067C194.675 125.042 194.725 125.034 194.771 125.045L197.488 125.477C197.515 125.477 197.541 125.483 197.565 125.494C197.59 125.505 197.611 125.522 197.628 125.542C197.646 125.562 197.659 125.586 197.666 125.612C197.673 125.638 197.675 125.665 197.671 125.691C197.667 125.718 197.657 125.743 197.642 125.765C197.627 125.788 197.608 125.806 197.585 125.821C197.563 125.835 197.537 125.844 197.511 125.847C197.484 125.85 197.457 125.848 197.432 125.84L194.715 125.408H194.685" fill="#FFBFA3"/>
</g>
</g>
<mask id="mask15_5093_1081" style="mask-type:luminance" maskUnits="userSpaceOnUse" x="194" y="126" width="4" height="1">
<path d="M197.754 126.436H194.883V126.885H197.754V126.436Z" fill="white"/>
</mask>
<g mask="url(#mask15_5093_1081)">
<g opacity="0.45">
<path d="M194.991 126.794C194.952 126.783 194.918 126.759 194.896 126.726C194.873 126.693 194.862 126.653 194.866 126.613C194.868 126.564 194.889 126.519 194.924 126.486C194.96 126.453 195.007 126.435 195.055 126.436L197.556 126.518C197.581 126.518 197.604 126.524 197.626 126.534C197.648 126.544 197.668 126.558 197.685 126.576C197.701 126.593 197.714 126.614 197.722 126.637C197.73 126.659 197.734 126.684 197.733 126.708C197.732 126.732 197.727 126.756 197.717 126.778C197.707 126.8 197.693 126.82 197.675 126.836C197.658 126.853 197.637 126.866 197.614 126.874C197.592 126.882 197.568 126.886 197.544 126.885L195.042 126.803C195.025 126.807 195.007 126.807 194.991 126.803" fill="#FFBFA3"/>
</g>
</g>
<path d="M252.345 95.7028C252.345 95.7028 252.775 88.2516 259.526 87.3925C258.653 86.7601 257.657 86.3188 256.603 86.0974C256.603 86.0974 250.696 86.1665 247.562 94.1055L252.345 95.7028Z" fill="#2E99E8"/>
<path d="M253.972 142.581L249.956 143.786C249.801 143.821 249.641 143.817 249.489 143.773C249.336 143.729 249.198 143.647 249.086 143.535C248.974 143.423 248.893 143.284 248.849 143.132C248.805 142.979 248.801 142.818 248.836 142.663L251.742 129.281C251.798 129.038 251.947 128.828 252.157 128.696C252.366 128.564 252.62 128.521 252.862 128.577L256.792 129.475C256.914 129.503 257.029 129.555 257.13 129.627C257.231 129.7 257.317 129.793 257.383 129.899C257.448 130.006 257.491 130.124 257.51 130.248C257.53 130.371 257.524 130.498 257.494 130.619L254.665 141.891C254.623 142.057 254.536 142.21 254.414 142.331C254.292 142.452 254.139 142.537 253.972 142.577" fill="#005DA3"/>
<path d="M254.071 142.534L250.627 143.574C250.059 143.747 249.572 143.181 249.723 142.521L252.685 129.492C252.719 129.27 252.839 129.069 253.018 128.934C253.197 128.798 253.422 128.738 253.645 128.767L256.908 129.514C257.016 129.549 257.116 129.605 257.202 129.679C257.288 129.753 257.359 129.844 257.41 129.945C257.462 130.047 257.492 130.157 257.501 130.271C257.509 130.384 257.495 130.498 257.46 130.606L254.653 141.83C254.619 141.987 254.546 142.132 254.44 142.252C254.335 142.372 254.2 142.463 254.05 142.517" fill="#3EA3FF"/>
<path d="M257.051 126.798L257.537 130.049C257.56 130.171 257.551 130.296 257.513 130.414C257.475 130.532 257.409 130.639 257.32 130.724C257.23 130.81 257.121 130.872 257.002 130.905C256.883 130.938 256.758 130.94 256.637 130.912L246.83 128.106C246.648 128.047 246.497 127.918 246.409 127.747C246.321 127.577 246.304 127.379 246.361 127.195L247.222 124.096C247.245 124.002 247.287 123.914 247.345 123.836C247.403 123.759 247.476 123.694 247.56 123.645C247.643 123.597 247.735 123.565 247.831 123.553C247.927 123.54 248.024 123.547 248.117 123.573L256.555 126.228C256.68 126.27 256.791 126.346 256.874 126.447C256.958 126.549 257.012 126.672 257.029 126.803" fill="#008BD1"/>
<path d="M256.637 130.908L246.83 128.102C246.742 128.084 246.659 128.048 246.585 127.996C246.512 127.945 246.45 127.878 246.404 127.801C246.358 127.723 246.328 127.637 246.317 127.548C246.306 127.459 246.313 127.368 246.339 127.282C246.339 127.282 257.137 131.051 256.637 130.908Z" fill="#005DA3"/>
<path d="M257.55 126.941V130.058C257.55 130.571 257.188 131.068 256.87 130.977L250.705 128.905C250.468 128.836 250.369 128.521 250.481 128.124L251.251 125.382C251.368 124.981 251.656 124.713 251.897 124.791L257.279 126.431C257.438 126.483 257.537 126.682 257.537 126.941" fill="#3EA3FF"/>
<path d="M249.551 134.224C249.397 134.687 249.295 135.166 249.245 135.653C249.245 135.86 249.198 136.084 249.172 136.253C249.148 136.462 249.112 136.669 249.064 136.874C248.963 137.259 248.993 137.666 249.151 138.031C249.231 138.224 249.346 138.399 249.491 138.549L249.659 138.726L250.98 140.116C251.224 140.372 251.528 140.563 251.864 140.672C252.2 140.78 252.558 140.803 252.905 140.738L256.383 140.099C256.641 140.05 256.883 139.936 257.085 139.768C257.287 139.599 257.442 139.382 257.537 139.136L258.075 137.776C258.158 137.569 258.196 137.346 258.186 137.123C258.176 136.9 258.119 136.681 258.019 136.481L256.728 133.891L255.811 135.527C251.897 134.811 250.881 132.644 250.881 132.644L250.821 132.678C250.363 132.921 249.99 133.299 249.753 133.762C249.683 133.902 249.621 134.046 249.568 134.193" fill="#FBC7AF"/>
<mask id="mask16_5093_1081" style="mask-type:luminance" maskUnits="userSpaceOnUse" x="249" y="133" width="4" height="5">
<path d="M252.681 133.788H249.546V137.021H252.681V133.788Z" fill="white"/>
</mask>
<g mask="url(#mask16_5093_1081)">
<g opacity="0.5">
<path d="M249.551 134.224C249.923 135.165 250.579 135.967 251.428 136.516C251.748 136.721 252.092 136.887 252.453 137.008C252.473 137.018 252.496 137.023 252.519 137.023C252.542 137.023 252.565 137.018 252.586 137.008C252.694 136.948 252.732 136.758 252.586 136.711C251.608 136.373 250.774 135.71 250.222 134.833C250.017 134.508 249.855 134.159 249.74 133.792C249.67 133.932 249.608 134.076 249.555 134.224" fill="#FFBFA3"/>
</g>
</g>
<mask id="mask17_5093_1081" style="mask-type:luminance" maskUnits="userSpaceOnUse" x="249" y="135" width="3" height="4">
<path d="M251.996 135.653H249.172V138.191H251.996V135.653Z" fill="white"/>
</mask>
<g mask="url(#mask17_5093_1081)">
<g opacity="0.5">
<path d="M249.237 135.653C249.237 135.86 249.189 136.084 249.164 136.253C249.301 136.47 249.465 136.67 249.65 136.848C250.28 137.403 250.995 137.852 251.768 138.178C251.958 138.264 252.087 137.958 251.897 137.867C251.097 137.55 250.366 137.079 249.745 136.481C249.519 136.243 249.343 135.961 249.228 135.653" fill="#FFBFA3"/>
</g>
</g>
<mask id="mask18_5093_1081" style="mask-type:luminance" maskUnits="userSpaceOnUse" x="249" y="138" width="3" height="2">
<path d="M251.144 138.031H249.15V139.257H251.144V138.031Z" fill="white"/>
</mask>
<g mask="url(#mask18_5093_1081)">
<g opacity="0.5">
<path d="M249.15 138.031C249.23 138.224 249.346 138.4 249.49 138.549L249.658 138.726C250.079 138.924 250.51 139.097 250.95 139.244C250.985 139.257 251.023 139.257 251.058 139.242C251.092 139.228 251.12 139.201 251.135 139.167C251.147 139.146 251.155 139.122 251.158 139.098C251.16 139.074 251.157 139.05 251.15 139.027C251.142 139.004 251.129 138.983 251.113 138.965C251.096 138.948 251.076 138.934 251.053 138.925C250.528 138.755 250.019 138.537 249.534 138.273C249.406 138.199 249.282 138.118 249.163 138.031" fill="#FFBFA3"/>
</g>
</g>
<path d="M259.259 104.889C259.107 105.363 258.78 105.76 258.346 106.001C257.912 106.242 257.402 106.307 256.921 106.184C254.984 105.632 251.755 104.738 249.577 104.298C247.012 103.87 244.424 103.59 241.827 103.46C241.289 103.394 240.796 103.126 240.447 102.71C240.097 102.295 239.917 101.763 239.941 101.22C239.928 100.265 240.022 99.3126 240.221 98.3793C240.447 97.4145 240.753 96.4702 241.134 95.5559C241.262 95.2295 241.472 94.9423 241.745 94.7227C242.018 94.5031 242.343 94.3587 242.688 94.304C244.834 94.0647 247 94.0647 249.146 94.304C252.844 94.6321 256.818 96.1387 258.704 97.8612C259.565 98.634 260.327 100.296 260.163 101.315C259.95 102.537 259.654 103.743 259.276 104.924" fill="#AED1E5"/>
<path d="M259.259 104.889C259.107 105.363 258.78 105.76 258.346 106.001C257.912 106.242 257.402 106.307 256.921 106.184C254.984 105.632 251.755 104.738 249.577 104.298C247.012 103.87 244.424 103.59 241.827 103.46C240.764 103.396 237.952 102.817 237.952 101.626C237.952 100.762 240.015 99.3376 240.234 98.3793C240.46 97.4145 240.766 96.4702 241.147 95.5559C241.275 95.2295 241.485 94.9423 241.758 94.7227C242.031 94.5031 242.356 94.3587 242.701 94.304C244.847 94.0647 247.013 94.0647 249.159 94.304C252.857 94.6321 256.831 96.1387 258.717 97.8612C259.578 98.634 260.34 100.296 260.176 101.315C259.963 102.537 259.667 103.743 259.289 104.924" fill="#008BD1"/>
<path d="M256.87 103.689C256.728 104.161 256.415 104.561 255.992 104.811C255.569 105.06 255.067 105.141 254.588 105.036C252.655 104.548 249.422 103.763 247.269 103.396C244.717 103.05 242.146 102.852 239.571 102.804C239.036 102.759 238.538 102.511 238.181 102.109C237.823 101.708 237.632 101.184 237.647 100.646C237.61 99.7028 237.679 98.7586 237.853 97.8312C238.053 96.8712 238.332 95.9297 238.689 95.0165C238.805 94.688 239.004 94.3956 239.268 94.1684C239.532 93.9413 239.85 93.7871 240.191 93.7213C242.305 93.4147 244.446 93.3423 246.576 93.5055C250.244 93.7213 254.64 95.5906 256.827 96.631C257.246 96.8503 257.585 97.1966 257.796 97.6207C258.007 98.0448 258.079 98.5249 258.002 98.9924C257.95 99.3551 257.89 99.7738 257.817 100.257C257.598 101.419 257.283 102.559 256.874 103.668" fill="#3EA3FF"/>
<path d="M255.475 102.649C255.328 103.029 255.048 103.342 254.688 103.53C254.327 103.718 253.91 103.767 253.516 103.668C251.841 103.275 249.03 102.632 247.17 102.325C244.959 102.033 242.734 101.856 240.505 101.794C240.065 101.775 239.648 101.591 239.336 101.279C239.024 100.966 238.841 100.548 238.822 100.106C238.782 99.3743 238.834 98.6404 238.977 97.9217C239.142 97.1816 239.377 96.4589 239.679 95.7632C239.791 95.5012 239.969 95.2728 240.195 95.1003C240.421 94.9277 240.689 94.817 240.97 94.7789C242.802 94.5648 244.651 94.5301 246.49 94.6753C249.671 94.8782 253.486 96.3719 255.384 97.2008C255.736 97.3498 256.028 97.6116 256.215 97.9453C256.402 98.279 256.473 98.6655 256.418 99.0441C256.379 99.3247 256.327 99.6485 256.267 100.024C256.087 100.926 255.824 101.809 255.479 102.662" fill="#A4E5FF"/>
</g>
<defs>
<linearGradient id="paint0_linear_5093_1081" x1="323.003" y1="205.218" x2="273.278" y2="225.818" gradientUnits="userSpaceOnUse">
<stop stop-color="#A6E2B2"/>
<stop offset="0.6" stop-color="#6FC183"/>
<stop offset="1" stop-color="#6FC183"/>
</linearGradient>
<linearGradient id="paint1_linear_5093_1081" x1="290.173" y1="238.298" x2="350.572" y2="212.212" gradientUnits="userSpaceOnUse">
<stop stop-color="#6FC183"/>
<stop offset="0.4" stop-color="#6FC183"/>
<stop offset="1" stop-color="#A6E2B2"/>
</linearGradient>
<linearGradient id="paint2_linear_5093_1081" x1="272.958" y1="247.442" x2="325.212" y2="242.547" gradientUnits="userSpaceOnUse">
<stop stop-color="#106B4F"/>
<stop offset="0.05" stop-color="#106B4F"/>
<stop offset="1" stop-color="#2A9B75"/>
</linearGradient>
<linearGradient id="paint3_linear_5093_1081" x1="262.293" y1="244.046" x2="317.877" y2="259.142" gradientUnits="userSpaceOnUse">
<stop stop-color="#2A9B75"/>
<stop offset="0.95" stop-color="#106B4F"/>
<stop offset="1" stop-color="#106B4F"/>
</linearGradient>
<linearGradient id="paint4_linear_5093_1081" x1="283.064" y1="242.31" x2="306.699" y2="238.635" gradientUnits="userSpaceOnUse">
<stop stop-color="#62B79C"/>
<stop offset="0.6" stop-color="#40947D"/>
<stop offset="1" stop-color="#40947D"/>
</linearGradient>
<linearGradient id="paint5_linear_5093_1081" x1="229.9" y1="140.872" x2="218.393" y2="105.066" gradientUnits="userSpaceOnUse">
<stop stop-color="#073D72"/>
<stop offset="0.98" stop-color="#1F5493"/>
<stop offset="1" stop-color="#1F5493"/>
</linearGradient>
<linearGradient id="paint6_linear_5093_1081" x1="220.969" y1="142.268" x2="245.329" y2="142.268" gradientUnits="userSpaceOnUse">
<stop stop-color="#073D72"/>
<stop offset="0.54" stop-color="#1F5493"/>
<stop offset="1" stop-color="#1F5493"/>
</linearGradient>
<linearGradient id="paint7_linear_5093_1081" x1="263.881" y1="151.547" x2="242.1" y2="137.835" gradientUnits="userSpaceOnUse">
<stop stop-color="#073D72"/>
<stop offset="0.98" stop-color="#1F5493"/>
<stop offset="1" stop-color="#1F5493"/>
</linearGradient>
<linearGradient id="paint8_linear_5093_1081" x1="196.429" y1="242.739" x2="213.593" y2="247.86" gradientUnits="userSpaceOnUse">
<stop stop-color="#073D72"/>
<stop offset="0.83" stop-color="#1F5493"/>
<stop offset="1" stop-color="#1F5493"/>
</linearGradient>
<linearGradient id="paint9_linear_5093_1081" x1="259.879" y1="250.914" x2="275.758" y2="242.612" gradientUnits="userSpaceOnUse">
<stop stop-color="#073D72"/>
<stop offset="0.83" stop-color="#1F5493"/>
<stop offset="1" stop-color="#1F5493"/>
</linearGradient>
<linearGradient id="paint10_linear_5093_1081" x1="281.178" y1="145.077" x2="260.607" y2="147.289" gradientUnits="userSpaceOnUse">
<stop stop-color="#073D72"/>
<stop offset="0.83" stop-color="#1F5493"/>
<stop offset="1" stop-color="#1F5493"/>
</linearGradient>
</defs>
</svg>
